# xmcd CD database file
#
# Track frame offsets:
#	180
#	11433
#	34550
#	45270
#	62666
#	74254
#	88243
#	106649
#	121438
#	139261
#	151762
#	167328
#	181202
#	197625
#	209967
#	223897
#	236993
#	250480
#
# Disc length: 3530 seconds
#
# Revision: 0
# Processed by: cddbd v1.5.2PL0 Copyright (c) Steve Scherf et al.
# Submitted via: CDex 1.51
#
DISCID=fe0dc812
DTITLE=Various Artist - Glory Train Sophia 60
DYEAR=2005
DGENRE=Country
TTITLE0=Keith Asher and Southern Rain/When You're Under The Waves
TTITLE1=Jeff Cumming/What Can God Do With That
TTITLE2=Paul O'Bryan/I Can't Stand Still
TTITLE3=Blaine Bowman and His Good Time Band/A Daddy Like That
TTITLE4=Alberta Mullins/Standing On That Rock
TTITLE5=Dave and Shirley/One More Thing To Love Him For
TTITLE6=Bobby Glendy/Devil To The Cross
TTITLE7=The Cordells/Get Up
TTITLE8=Joe Selby/River of Healing
TTITLE9=LaVerne Tripp/Glory To God In The Highest
TTITLE10=Two Hearts-N-Him/Christmas Time In Heaven
TTITLE11=The Isbells/Christmas On The Farm
TTITLE12=Rachel Toney/I'll Be Home For Christmas
TTITLE13=Alberta Mullins/How Precious A Gift
TTITLE14=Blaine Bowman and His Good Time Band/Blaine's Bluegrass Christmas Song
TTITLE15=Joanne Cash/What If Jesus Comes Again This Christmas
TTITLE16=Harry Yates/The Night Before Christmas (Recitation)
TTITLE17=Robert Shields/Merry Christmas To The Savior
EXTD=YEAR: 2005
EXTT0=
EXTT1=
EXTT2=
EXTT3=
EXTT4=
EXTT5=
EXTT6=
EXTT7=
EXTT8=
EXTT9=
EXTT10=
EXTT11=
EXTT12=
EXTT13=
EXTT14=
EXTT15=
EXTT16=
EXTT17=
PLAYORDER=
